<!DOCTYPE svg PUBLIC "-//W3C//DTD SVG 1.1//EN" "http://www.w3.org/Graphics/SVG/1.1/DTD/svg11.dtd">
<!-- Uploaded to: SVG Repo, www.svgrepo.com, Transformed by: SVG Repo Mixer Tools -->
<svg width="800px" height="800px" viewBox="0 0 512 512" id="icons" xmlns="http://www.w3.org/2000/svg" fill="#000000">
<g id="SVGRepo_bgCarrier" stroke-width="0"/>
<g id="SVGRepo_tracerCarrier" stroke-linecap="round" stroke-linejoin="round"/>
<g id="SVGRepo_iconCarrier"> <defs> <style>.cls-1{stroke-miterlimit:10;}.cls-1,.cls-2{fill:none;stroke:#808285;stroke-width:7px;}.cls-2{stroke-linecap:round;stroke-linejoin:round;}</style> </defs> <g> <polyline class="cls-2" points="328.47 342.11 254.47 323.25 181.22 342.11 254.47 362.56"/> <path class="cls-1" d="M230.82,355.96c.72-2.37,1.84-4.58,3.29-6.54-.1-.12-.16-.27-.17-.44l-.47-10.47c-.03-.59,.59-.99,1.12-.72l8.57,4.45c2.63-1.12,5.53-1.74,8.58-1.74s5.85,.6,8.45,1.69l8.47-4.4c.52-.27,1.14,.13,1.12,.72l-.47,10.47c-.01,.1-.03,.18-.07,.26,1.8,2.39,3.12,5.17,3.82,8.18"/> <polyline class="cls-2" points="181.22 377.01 181.22 421.88 254.47 442.33 254.47 384.1 254.47 362.56 230.82 355.96 181.22 342.11"/> <polyline class="cls-2" points="328.47 342.11 273.06 357.42 254.47 362.56 254.47 384.1 254.47 442.33 328.47 421.88 328.47 375.43"/> <polygon class="cls-2" points="369.66 364.61 328.47 375.43 296.41 383.86 271.72 371.32 254.47 362.56 273.06 357.42 328.47 342.11 369.66 364.61"/> <polygon class="cls-2" points="254.47 323.25 181.22 342.11 140.04 324.29 213.28 305.04 254.47 323.25"/> <polygon class="cls-2" points="140.04 366.19 213.28 385.44 254.47 362.56 181.22 342.11 140.04 366.19"/> <polygon class="cls-2" points="254.47 323.25 328.11 342.02 373.56 321.5 300.32 302.25 254.47 323.25"/> </g> <circle class="cls-1" cx="256" cy="256" r="11.32"/> <rect class="cls-1" height="150.89" rx="10.46" ry="10.46" width="20.91" x="246.4" y="68.53"/> </g>
</svg>